<svg width="11" height="19" viewBox="0 0 11 19" fill="none" xmlns="http://www.w3.org/2000/svg">
<path d="M8.77393 18.4692C9.01465 18.7017 9.30518 18.8345 9.65381 18.8345C10.3594 18.8345 10.9155 18.2783 10.9155 17.5811C10.9155 17.2324 10.7744 16.917 10.5254 16.668L3.00488 9.41309L10.5254 2.1665C10.7744 1.91748 10.9155 1.59375 10.9155 1.25342C10.9155 0.556152 10.3594 0 9.65381 0C9.30518 0 9.02295 0.124512 8.77393 0.365234L0.456543 8.40869C0.157715 8.69922 0 9.03125 0 9.42139C0 9.80322 0.149414 10.1187 0.456543 10.4258L8.77393 18.4692Z" fill="#969696"/>
</svg>
