<svg width="168" height="16" viewBox="0 0 168 16" fill="none" xmlns="http://www.w3.org/2000/svg">
<path d="M11.38 4.06V0.999999H0.4V15H4.36V10.2H10.54V7.14H4.36V4.06H11.38ZM20.0948 15.28C22.6748 15.28 24.7548 14.34 26.1148 12.64L23.5948 10.36C22.7148 11.42 21.6348 12 20.2948 12C17.9948 12 16.3948 10.4 16.3948 8C16.3948 5.6 17.9948 4 20.2948 4C21.6348 4 22.7148 4.58 23.5948 5.64L26.1148 3.36C24.7548 1.66 22.6748 0.719999 20.0948 0.719999C15.6548 0.719999 12.3948 3.74 12.3948 8C12.3948 12.26 15.6548 15.28 20.0948 15.28ZM44.4608 7.7C45.6608 7.08 46.3408 6 46.3408 4.66C46.3408 2.5 44.5408 0.999999 40.8608 0.999999H33.7008V15H41.2608C45.0208 15 47.0208 13.58 47.0208 11.16C47.0208 9.46 46.0408 8.26 44.4608 7.7ZM40.3408 3.86C41.6608 3.86 42.3408 4.32 42.3408 5.2C42.3408 6.1 41.6608 6.56 40.3408 6.56H37.6208V3.86H40.3408ZM40.9408 12.14H37.6208V9.3H40.9408C42.3008 9.3 43.0208 9.76 43.0208 10.72C43.0208 11.68 42.3008 12.14 40.9408 12.14ZM59.5519 15H63.6719L57.4719 0.999999H53.5719L47.3919 15H51.4319L52.5319 12.28H58.4519L59.5519 15ZM53.6919 9.36L55.4919 4.88L57.2919 9.36H53.6919ZM73.4545 15H77.6945L74.6745 10.6C76.4145 9.76 77.4145 8.24 77.4145 6.18C77.4145 2.98 75.0145 0.999999 71.1945 0.999999H64.7945V15H68.7545V11.28H70.9145L73.4545 15ZM73.4145 6.18C73.4145 7.46 72.5945 8.22 70.9545 8.22H68.7545V4.12H70.9545C72.5945 4.12 73.4145 4.88 73.4145 6.18ZM86.5792 15.28C89.1592 15.28 91.2392 14.34 92.5992 12.64L90.0792 10.36C89.1992 11.42 88.1192 12 86.7792 12C84.4792 12 82.8792 10.4 82.8792 8C82.8792 5.6 84.4792 4 86.7792 4C88.1192 4 89.1992 4.58 90.0792 5.64L92.5992 3.36C91.2392 1.66 89.1592 0.719999 86.5792 0.719999C82.1392 0.719999 78.8792 3.74 78.8792 8C78.8792 12.26 82.1392 15.28 86.5792 15.28ZM98.2848 11.94V9.38H104.505V6.42H98.2848V4.06H105.345V0.999999H94.3648V15H105.605V11.94H98.2848ZM107.802 15H118.442V11.86H111.762V0.999999H107.802V15ZM126.855 15.28C131.335 15.28 134.635 12.2 134.635 8C134.635 3.8 131.335 0.719999 126.855 0.719999C122.375 0.719999 119.075 3.8 119.075 8C119.075 12.2 122.375 15.28 126.855 15.28ZM126.855 12C124.735 12 123.075 10.42 123.075 8C123.075 5.58 124.735 4 126.855 4C128.975 4 130.635 5.58 130.635 8C130.635 10.42 128.975 12 126.855 12ZM146.149 0.999999V8.46L139.969 0.999999H136.709V15H140.589V7.54L146.769 15H150.029V0.999999H146.149ZM163.302 15H167.422L161.222 0.999999H157.322L151.142 15H155.182L156.282 12.28H162.202L163.302 15ZM157.442 9.36L159.242 4.88L161.042 9.36H157.442Z" fill="white"/>
</svg>
