<svg width="120" height="19" viewBox="0 0 120 19" fill="none" xmlns="http://www.w3.org/2000/svg">
<path d="M8.75 0.499999H0.75V18H5.7V13.425H8.75C13.525 13.425 16.525 10.95 16.525 6.975C16.525 2.975 13.525 0.499999 8.75 0.499999ZM8.45 9.525H5.7V4.4H8.45C10.5 4.4 11.525 5.35 11.525 6.975C11.525 8.575 10.5 9.525 8.45 9.525ZM18.9385 18H32.2385V14.075H23.8885V0.499999H18.9385V18ZM47.4926 18H52.6426L44.8926 0.499999H40.0176L32.2926 18H37.3426L38.7176 14.6H46.1176L47.4926 18ZM40.1676 10.95L42.4176 5.35L44.6676 10.95H40.1676ZM69.0223 0.499999H64.2223L60.0723 7.45L55.9223 0.499999H50.6973L57.3723 11.65V18H62.3223V11.725L69.0223 0.499999ZM75.108 14.175V10.975H82.883V7.275H75.108V4.325H83.933V0.499999H70.208V18H84.258V14.175H75.108ZM97.8299 18H103.13L99.3549 12.5C101.53 11.45 102.78 9.55 102.78 6.975C102.78 2.975 99.7799 0.499999 95.0049 0.499999H87.0049V18H91.9549V13.35H94.6549L97.8299 18ZM97.7799 6.975C97.7799 8.575 96.7549 9.525 94.7049 9.525H91.9549V4.4H94.7049C96.7549 4.4 97.7799 5.35 97.7799 6.975ZM111.661 18.35C116.861 18.35 119.411 15.75 119.411 12.7C119.411 6.25 109.486 8.25 109.486 5.575C109.486 4.7 110.236 4 112.311 4C113.836 4 115.486 4.45 117.161 5.35L118.686 1.675C116.961 0.675 114.611 0.149999 112.336 0.149999C107.136 0.149999 104.586 2.7 104.586 5.825C104.586 12.325 114.536 10.3 114.536 13.075C114.536 13.925 113.736 14.5 111.686 14.5C109.661 14.5 107.461 13.8 105.911 12.775L104.286 16.425C105.936 17.575 108.786 18.35 111.661 18.35Z" fill="url(#paint0_linear_12_19)"/>
<defs>
<linearGradient id="paint0_linear_12_19" x1="-21.0473" y1="-21" x2="124.041" y2="-7.21896" gradientUnits="userSpaceOnUse">
<stop stop-color="#FF0000"/>
<stop offset="1" stop-color="#0023A0"/>
</linearGradient>
</defs>
</svg>
